<svg width="44" height="44" viewBox="0 0 44 44" fill="none" xmlns="http://www.w3.org/2000/svg">
<path fill-rule="evenodd" clip-rule="evenodd" d="M38.8779 12.7301L16.6851 18.6999C15.892 18.8792 15.1345 19.3594 14.5778 20.087C14.0206 20.8138 13.753 21.6722 13.753 22.5232V27.9447L7.86018 29.5056C7.5183 29.5971 7.20444 29.7979 6.97185 30.1015C6.73926 30.4023 6.62997 30.7582 6.62997 31.1113V36.8794L12.5227 35.2914C12.6105 35.268 12.6965 35.2372 12.7796 35.1998C13.0202 35.0905 13.2378 34.9215 13.4106 34.6982C13.6432 34.3984 13.7525 34.0416 13.7525 33.6885L13.753 27.9447L20.8862 26.0316V34.5217L15.0145 36.0854C14.6656 36.1806 14.3452 36.3852 14.1088 36.6925C13.8725 36.9998 13.76 37.3632 13.76 37.7275V43.7497L19.6317 42.172C19.7144 42.1486 19.7956 42.1206 19.8746 42.0851C19.9171 42.0664 19.9591 42.0459 20.0002 42.0234C20.2039 41.9142 20.3874 41.761 20.5373 41.5648C20.7737 41.2575 20.8862 40.8932 20.8862 40.5336V34.5217L27.9985 32.6049V41.0389L38.9027 38.1086C40.7386 37.6173 42.2402 35.6762 42.2402 33.837V15.1372C42.2435 13.2989 40.7424 12.1967 38.8779 12.7301ZM5.72436 43.0435L2.2 44V40.5018C2.2 40.3458 2.23036 40.1851 2.29154 40.0347C2.33264 39.9329 2.38775 39.8358 2.45734 39.7461C2.63015 39.5163 2.86601 39.365 3.11962 39.2977L6.64398 38.3375V41.8357C6.64398 42.101 6.55944 42.3691 6.3871 42.5951C6.21429 42.8212 5.97797 42.9725 5.72436 43.0435Z" fill="#006A40"/>
<path fill-rule="evenodd" clip-rule="evenodd" d="M16.6426 4.29296L32.3014 0.102589C33.8553 -0.320559 35.1275 0.604201 35.1312 2.16041V17.9831C35.1312 19.5365 33.859 21.16 32.3047 21.5804L28.005 22.734V15.6498L20.8857 17.5628V10.4001L13.7702 12.3029V8.14426C13.7702 7.28956 14.0379 6.43205 14.595 5.70532C15.1308 5.00288 15.8565 4.53303 16.6426 4.30044V4.29296ZM7.73314 19.9597L12.5087 18.6604C12.8539 18.5651 13.171 18.3643 13.4073 18.0569C13.5106 17.9224 13.5895 17.7786 13.6455 17.6291C13.7179 17.4358 13.7525 17.234 13.7525 17.0332V12.3029L8.97737 13.591C8.83632 13.6302 8.69994 13.6863 8.57197 13.761C8.38655 13.8694 8.21841 14.0151 8.07876 14.1982C7.8457 14.5055 7.73314 14.866 7.73314 15.2257V19.9597ZM2.20374 27.0411L5.7281 26.0846C5.98171 26.0136 6.21803 25.8623 6.39084 25.6362C6.48892 25.5083 6.55851 25.3663 6.60008 25.2187C6.63184 25.1066 6.64772 24.9917 6.64772 24.8768V21.3786L3.12336 22.3389C2.86975 22.4061 2.63389 22.5574 2.46108 22.7872C2.28827 23.0095 2.20374 23.2776 2.20374 23.5429V27.0411Z" fill="#50AC25"/>
</svg>
