<svg width="1440" height="1024" viewBox="0 0 1440 1024" fill="none" xmlns="http://www.w3.org/2000/svg">
<rect width="1440" height="1024" fill="#003F7C"/>
<path fill-rule="evenodd" clip-rule="evenodd" d="M101.825 44.7747L53.4039 57.7998C51.6736 58.1911 50.0208 59.2386 48.8061 60.8262C47.5904 62.4118 47.0065 64.2848 47.0065 66.1415V77.9702L34.1495 81.3758C33.4036 81.5755 32.7188 82.0137 32.2114 82.676C31.7039 83.3323 31.4654 84.1088 31.4654 84.8792V97.4641L44.3224 93.9994C44.514 93.9484 44.7015 93.8812 44.8829 93.7997C45.4077 93.5612 45.8825 93.1923 46.2596 92.7052C46.767 92.051 47.0055 91.2725 47.0055 90.5021L47.0065 77.9702L62.57 73.7963V92.32L49.7589 95.7317C48.9977 95.9396 48.2986 96.3859 47.783 97.0564C47.2674 97.727 47.0218 98.5198 47.0218 99.3146V112.454L59.8329 109.012C60.0133 108.961 60.1906 108.899 60.3628 108.822C60.4555 108.781 60.5472 108.736 60.6369 108.688C61.0812 108.449 61.4817 108.115 61.8088 107.687C62.3244 107.016 62.57 106.221 62.57 105.437V92.32L78.0876 88.138V106.539L101.879 100.146C105.884 99.0741 109.161 94.8391 109.161 90.8262V50.0267C109.168 46.0158 105.893 43.6109 101.825 44.7747ZM29.4896 110.913L21.8 113V105.368C21.8 105.027 21.8663 104.677 21.9998 104.349C22.0895 104.126 22.2097 103.914 22.3615 103.719C22.7386 103.217 23.2532 102.887 23.8065 102.741L31.496 100.645V108.278C31.496 108.857 31.3116 109.442 30.9356 109.935C30.5585 110.428 30.0429 110.758 29.4896 110.913Z" fill="#006A40"/>
<path fill-rule="evenodd" clip-rule="evenodd" d="M53.3111 26.3665L87.4757 17.2238C90.866 16.3006 93.6418 18.3183 93.65 21.7136V56.2359C93.65 59.6252 90.8741 63.1673 87.4828 64.0844L78.1018 66.6014V51.1449L62.5689 55.3188V39.6912L47.0441 43.8426V34.7693C47.0441 32.9045 47.628 31.0336 48.8437 29.448C50.0125 27.9154 51.5961 26.8902 53.3111 26.3828V26.3665ZM33.8723 60.5484L44.2917 57.7135C45.0448 57.5056 45.7367 57.0675 46.2523 56.397C46.4775 56.1035 46.6497 55.7896 46.772 55.4635C46.93 55.0417 47.0054 54.6014 47.0054 54.1633V43.8426L36.5869 46.6531C36.2792 46.7387 35.9816 46.861 35.7024 47.024C35.2979 47.2604 34.931 47.5784 34.6263 47.9778C34.1179 48.6483 33.8723 49.435 33.8723 50.2197V60.5484ZM21.8081 75.9988L29.4976 73.9118C30.0509 73.757 30.5666 73.4268 30.9436 72.9336C31.1576 72.6544 31.3094 72.3446 31.4001 72.0226C31.4694 71.778 31.5041 71.5273 31.5041 71.2767V63.6442L23.8146 65.7393C23.2612 65.8861 22.7466 66.2162 22.3696 66.7176C21.9925 67.2026 21.8081 67.7875 21.8081 68.3663V75.9988Z" fill="#50AC25"/>
</svg>
