<svg width="301" height="301" viewBox="0 0 301 301" fill="none" xmlns="http://www.w3.org/2000/svg">
<path d="M283.368 166.682C284.038 161.377 284.373 156.034 284.372 150.687C284.372 88.5008 239.585 38.0875 184.341 38.0875C155.074 38.0875 128.745 52.2375 110.453 74.7909H21.1269C47.1219 30.0571 95.3787 5.24521e-06 150.623 5.24521e-06C233.4 5.24521e-06 300.5 67.464 300.5 150.687C300.5 170.891 296.537 190.162 289.362 207.767H83.942C61.804 207.767 45.6477 193.962 43.4311 166.684H122.077L122.077 133.818H17.1338C16.5221 138.664 16.1898 143.541 16.1386 148.426L16.1298 149.813C16.1298 212.001 60.9166 262.413 116.161 262.413C145.428 262.413 171.759 248.263 190.049 225.711H279.371C253.38 270.445 205.123 300.5 149.877 300.5C67.1034 300.5 0 233.036 0 149.813C0 129.609 3.96483 110.342 11.1397 92.7325H215.384C237.522 92.7325 253.679 106.538 255.895 133.816L177.247 133.818V166.684L283.368 166.682Z" fill="black"/>
<path d="M133.818 283.368C139.123 284.038 144.466 284.373 149.813 284.372C211.999 284.372 262.413 239.585 262.413 184.341C262.413 155.074 248.262 128.745 225.709 110.453V21.1269C270.443 47.1219 300.5 95.3787 300.5 150.623C300.5 233.4 233.036 300.5 149.813 300.5C129.609 300.5 110.338 296.537 92.7325 289.362V83.942C92.7325 61.804 106.538 45.6477 133.816 43.4311V122.077H166.682V17.1338C161.836 16.5221 156.959 16.1898 152.074 16.1386L150.687 16.1298C88.499 16.1298 38.0875 60.9166 38.0875 116.161C38.0875 145.428 52.2375 171.759 74.7891 190.049V279.371C30.0553 253.38 0 205.123 0 149.877C0 67.1034 67.464 0 150.687 0C170.891 0 190.158 3.96483 207.767 11.1397V215.384C207.767 237.522 193.962 253.679 166.684 255.895L166.682 177.247H133.816L133.818 283.368Z" fill="#8B7842"/>
</svg>
