<svg width="163" height="45" viewBox="0 0 163 45" fill="none" xmlns="http://www.w3.org/2000/svg">
<path fill-rule="evenodd" clip-rule="evenodd" d="M38.8779 12.7301L16.6851 18.6999C15.892 18.8792 15.1345 19.3594 14.5778 20.087C14.0206 20.8138 13.753 21.6722 13.753 22.5232V27.9447L7.86018 29.5056C7.5183 29.5971 7.20444 29.7979 6.97185 30.1015C6.73926 30.4023 6.62997 30.7582 6.62997 31.1113V36.8794L12.5227 35.2914C12.6105 35.268 12.6965 35.2372 12.7796 35.1998C13.0202 35.0905 13.2378 34.9215 13.4106 34.6982C13.6432 34.3984 13.7525 34.0416 13.7525 33.6885L13.753 27.9447L20.8862 26.0316V34.5217L15.0145 36.0854C14.6656 36.1806 14.3452 36.3852 14.1088 36.6925C13.8725 36.9998 13.76 37.3632 13.76 37.7275V43.7497L19.6317 42.172C19.7144 42.1486 19.7956 42.1206 19.8746 42.0851C19.9171 42.0664 19.9591 42.0459 20.0002 42.0234C20.2039 41.9142 20.3874 41.761 20.5373 41.5648C20.7737 41.2575 20.8862 40.8932 20.8862 40.5336V34.5217L27.9985 32.6049V41.0389L38.9027 38.1086C40.7386 37.6173 42.2402 35.6762 42.2402 33.837V15.1372C42.2435 13.2989 40.7424 12.1967 38.8779 12.7301ZM5.72436 43.0435L2.2 44V40.5018C2.2 40.3458 2.23036 40.1851 2.29154 40.0347C2.33264 39.9329 2.38775 39.8358 2.45734 39.7461C2.63015 39.5163 2.86601 39.365 3.11962 39.2977L6.64398 38.3375V41.8357C6.64398 42.101 6.55944 42.3691 6.3871 42.5951C6.21429 42.8212 5.97797 42.9725 5.72436 43.0435Z" fill="#006A40"/>
<path fill-rule="evenodd" clip-rule="evenodd" d="M16.6426 4.29296L32.3014 0.102589C33.8553 -0.320559 35.1275 0.604201 35.1312 2.16041V17.9831C35.1312 19.5365 33.859 21.16 32.3047 21.5804L28.005 22.734V15.6498L20.8857 17.5628V10.4001L13.7702 12.3029V8.14426C13.7702 7.28956 14.0379 6.43205 14.595 5.70532C15.1308 5.00288 15.8565 4.53303 16.6426 4.30044V4.29296ZM7.73314 19.9597L12.5087 18.6604C12.8539 18.5651 13.171 18.3643 13.4073 18.0569C13.5106 17.9224 13.5895 17.7786 13.6455 17.6291C13.7179 17.4358 13.7525 17.234 13.7525 17.0332V12.3029L8.97737 13.591C8.83632 13.6302 8.69994 13.6863 8.57197 13.761C8.38655 13.8694 8.21841 14.0151 8.07876 14.1982C7.8457 14.5055 7.73314 14.866 7.73314 15.2257V19.9597ZM2.20374 27.0411L5.7281 26.0846C5.98171 26.0136 6.21803 25.8623 6.39084 25.6362C6.48892 25.5083 6.55851 25.3663 6.60008 25.2187C6.63184 25.1066 6.64772 24.9917 6.64772 24.8768V21.3786L3.12336 22.3389C2.86975 22.4061 2.63389 22.5574 2.46108 22.7872C2.28827 23.0095 2.20374 23.2776 2.20374 23.5429V27.0411Z" fill="#50AC25"/>
<path d="M54.088 27C53.78 27 53.5047 26.8833 53.262 26.65C53.0287 26.4073 52.912 26.132 52.912 25.824V9.192C52.912 8.884 53.0287 8.61333 53.262 8.38C53.5047 8.13733 53.78 8.016 54.088 8.016C54.396 8.016 54.6667 8.13733 54.9 8.38C55.1427 8.61333 55.264 8.884 55.264 9.192V16.22H66.688V9.192C66.688 8.884 66.8047 8.61333 67.038 8.38C67.2713 8.13733 67.5467 8.016 67.864 8.016C68.172 8.016 68.4427 8.13733 68.676 8.38C68.9187 8.61333 69.04 8.884 69.04 9.192V25.824C69.04 26.132 68.9187 26.4073 68.676 26.65C68.4427 26.8833 68.172 27 67.864 27C67.5467 27 67.2713 26.8833 67.038 26.65C66.8047 26.4073 66.688 26.132 66.688 25.824V18.572H55.264V25.824C55.264 26.132 55.1427 26.4073 54.9 26.65C54.6667 26.8833 54.396 27 54.088 27ZM73.973 26.888C73.2264 26.5987 73.0024 26.0853 73.301 25.348L79.965 8.94C80.245 8.324 80.6837 8.016 81.281 8.016H81.337C81.9437 8.044 82.3544 8.352 82.569 8.94L89.345 25.348C89.6437 26.0853 89.429 26.5987 88.701 26.888C87.9637 27.1773 87.4504 26.9627 87.161 26.244L85.649 22.576H76.927L75.485 26.244C75.1957 26.972 74.6917 27.1867 73.973 26.888ZM77.851 20.224H84.683L81.197 11.74L77.851 20.224ZM97.4158 27C95.8198 27 94.5738 26.678 93.6778 26.034C92.7911 25.39 92.2358 24.396 92.0118 23.052C91.9745 22.6413 92.0585 22.3333 92.2638 22.128C92.4691 21.9227 92.7678 21.82 93.1598 21.82C93.5518 21.82 93.8365 21.9133 94.0138 22.1C94.2005 22.2867 94.3265 22.576 94.3918 22.968C94.5318 23.612 94.8305 24.0553 95.2878 24.298C95.7545 24.5313 96.4638 24.648 97.4158 24.648H101.448C102.652 24.648 103.468 24.4333 103.898 24.004C104.336 23.5653 104.556 22.7533 104.556 21.568C104.556 20.364 104.332 19.5427 103.884 19.104C103.436 18.656 102.624 18.432 101.448 18.432H97.9758C96.2118 18.432 94.9005 18.0027 94.0418 17.144C93.1925 16.276 92.7678 14.96 92.7678 13.196C92.7678 11.4413 93.1878 10.1393 94.0278 9.29C94.8771 8.44067 96.1838 8.016 97.9478 8.016H101.28C102.764 8.016 103.926 8.31933 104.766 8.926C105.615 9.53267 106.152 10.4613 106.376 11.712C106.432 12.1133 106.357 12.4213 106.152 12.636C105.946 12.8413 105.638 12.944 105.228 12.944C104.854 12.944 104.574 12.846 104.388 12.65C104.201 12.454 104.08 12.1693 104.024 11.796C103.874 11.2453 103.59 10.872 103.17 10.676C102.75 10.4707 102.12 10.368 101.28 10.368H97.9478C96.8278 10.368 96.0765 10.5687 95.6938 10.97C95.3111 11.362 95.1198 12.104 95.1198 13.196C95.1198 14.2973 95.3158 15.0533 95.7078 15.464C96.0998 15.8747 96.8558 16.08 97.9758 16.08H101.448C103.286 16.08 104.654 16.528 105.55 17.424C106.455 18.32 106.908 19.7013 106.908 21.568C106.908 23.4253 106.46 24.7973 105.564 25.684C104.668 26.5613 103.296 27 101.448 27H97.4158ZM113.233 27C112.831 27 112.533 26.9067 112.337 26.72C112.15 26.524 112.057 26.2253 112.057 25.824V9.22C112.057 8.80933 112.15 8.51067 112.337 8.324C112.533 8.13733 112.831 8.044 113.233 8.044C113.643 8.044 113.942 8.13733 114.129 8.324C114.315 8.51067 114.409 8.80933 114.409 9.22V25.824C114.409 26.2253 114.315 26.524 114.129 26.72C113.942 26.9067 113.643 27 113.233 27ZM132.44 27.056C132.132 27.252 131.838 27.3127 131.558 27.238C131.278 27.1633 131.04 26.972 130.844 26.664L126.504 19.44H122.584V25.824C122.584 26.608 122.192 27 121.408 27C120.624 27 120.232 26.608 120.232 25.824V9.192C120.232 8.408 120.624 8.016 121.408 8.016H127.96C129.668 8.016 130.975 8.47333 131.88 9.388C132.795 10.2933 133.252 11.6 133.252 13.308V14.148C133.252 15.632 132.907 16.8173 132.216 17.704C131.526 18.5813 130.527 19.1273 129.22 19.342L132.888 25.46C133.243 26.1133 133.094 26.6453 132.44 27.056ZM122.584 17.088H127.96C129.024 17.088 129.78 16.864 130.228 16.416C130.676 15.968 130.9 15.212 130.9 14.148V13.308C130.9 12.2533 130.676 11.502 130.228 11.054C129.78 10.5967 129.024 10.368 127.96 10.368H122.584V17.088ZM138.908 27C138.507 27 138.208 26.9067 138.012 26.72C137.826 26.524 137.732 26.2253 137.732 25.824V9.22C137.732 8.80933 137.826 8.51067 138.012 8.324C138.208 8.13733 138.507 8.044 138.908 8.044C139.319 8.044 139.618 8.13733 139.804 8.324C139.991 8.51067 140.084 8.80933 140.084 9.22V25.824C140.084 26.2253 139.991 26.524 139.804 26.72C139.618 26.9067 139.319 27 138.908 27ZM145.908 27C145.143 27 144.76 26.608 144.76 25.824C144.76 25.6933 144.797 25.5487 144.872 25.39C144.947 25.2313 145.059 25.04 145.208 24.816L156.464 10.088V10.368H148.988C148.391 10.368 147.924 10.4567 147.588 10.634C147.252 10.8113 147.019 11.1053 146.888 11.516C146.804 11.8613 146.673 12.132 146.496 12.328C146.319 12.5147 146.039 12.608 145.656 12.608C145.264 12.608 144.956 12.5007 144.732 12.286C144.517 12.0713 144.443 11.768 144.508 11.376C144.732 10.2933 145.217 9.46267 145.964 8.884C146.72 8.30533 147.728 8.016 148.988 8.016H158.34C159.124 8.016 159.516 8.408 159.516 9.192C159.516 9.34133 159.483 9.5 159.418 9.668C159.353 9.836 159.236 10.032 159.068 10.256L147.952 24.76V24.648H156.24C156.875 24.648 157.36 24.564 157.696 24.396C158.032 24.2187 158.256 23.92 158.368 23.5C158.471 23.1453 158.611 22.8747 158.788 22.688C158.975 22.5013 159.255 22.408 159.628 22.408C160.02 22.408 160.323 22.5153 160.538 22.73C160.753 22.9447 160.832 23.248 160.776 23.64C160.319 25.88 158.807 27 156.24 27H145.908Z" fill="#003F7C"/>
<path d="M53.925 42C53.5797 42 53.407 41.8273 53.407 41.482V33.18C53.407 32.8347 53.5797 32.662 53.925 32.662H57.579C58.3023 32.662 58.8553 32.851 59.238 33.229C59.6207 33.607 59.812 34.1507 59.812 34.86V35.238C59.812 35.9007 59.602 36.3977 59.182 36.729C59.9473 37.121 60.33 37.87 60.33 38.976V39.438C60.33 40.278 60.1107 40.915 59.672 41.349C59.2333 41.783 58.5963 42 57.761 42H53.925ZM54.436 40.971H57.761C58.307 40.971 58.699 40.852 58.937 40.614C59.1797 40.3713 59.301 39.9793 59.301 39.438V38.976C59.301 38.4347 59.1843 38.0473 58.951 37.814C58.7177 37.576 58.321 37.457 57.761 37.457H54.436V40.971ZM54.436 36.428H57.782C58.1507 36.428 58.4097 36.323 58.559 36.113C58.7083 35.8983 58.783 35.6067 58.783 35.238V34.86C58.783 34.4353 58.692 34.1343 58.51 33.957C58.328 33.7797 58.0177 33.691 57.579 33.691H54.436V36.428ZM62.0488 41.951C61.7222 41.8203 61.6242 41.594 61.7548 41.272L65.1358 33.068C65.2525 32.7973 65.4438 32.662 65.7098 32.662H65.7448C66.0108 32.676 66.1928 32.8113 66.2908 33.068L69.7068 41.272C69.8375 41.594 69.7442 41.8203 69.4268 41.951C69.1048 42.077 68.8808 41.9837 68.7548 41.671L67.9358 39.711H63.5048L62.7138 41.671C62.5832 41.9883 62.3615 42.0817 62.0488 41.951ZM63.9108 38.682H67.5158L65.6888 34.293L63.9108 38.682ZM72.1906 42C71.8453 42 71.6726 41.8273 71.6726 41.482V33.18C71.6726 32.8347 71.8453 32.662 72.1906 32.662C72.368 32.662 72.5406 32.7647 72.7086 32.97L78.4346 40.341H78.1826V33.18C78.1826 32.8347 78.3553 32.662 78.7006 32.662C79.0413 32.662 79.2116 32.8347 79.2116 33.18V41.482C79.2116 41.8273 79.0413 42 78.7006 42C78.514 42 78.3413 41.8973 78.1826 41.692L72.4496 34.321H72.7016V41.482C72.7016 41.8273 72.5313 42 72.1906 42ZM82.5402 42C82.1949 42 82.0222 41.8273 82.0222 41.482V33.18C82.0222 32.8347 82.1949 32.662 82.5402 32.662C82.8809 32.662 83.0512 32.8347 83.0512 33.18V36.736L86.8172 32.858C87.0552 32.606 87.2956 32.6013 87.5382 32.844C87.7902 33.082 87.7949 33.3247 87.5522 33.572L84.5212 36.694L88.0912 41.125C88.3012 41.3957 88.2779 41.636 88.0212 41.846C87.7552 42.0653 87.5149 42.042 87.3002 41.776L83.8002 37.443L83.0512 38.213V41.482C83.0512 41.8273 82.8809 42 82.5402 42Z" fill="#003F7C"/>
</svg>
