<svg width="159" height="46" viewBox="0 0 159 46" fill="none" xmlns="http://www.w3.org/2000/svg">
<path d="M19.1487 40.5485C19.9078 40.6444 20.6723 40.6923 21.4375 40.6922C30.336 40.6922 37.5499 34.2834 37.5499 26.3782C37.5499 22.1903 35.5251 18.4227 32.2978 15.8053V3.02315C38.699 6.74291 43 13.6482 43 21.5534C43 33.3984 33.3462 43 21.4375 43C18.5464 43 15.7888 42.4329 13.2695 41.4062V12.0117C13.2695 8.84383 15.245 6.53195 19.1484 6.21476V17.4686H23.8513V2.45176C23.1579 2.36422 22.46 2.31667 21.761 2.30935L21.5625 2.30809C12.6638 2.30809 5.45012 8.71686 5.45012 16.622C5.45012 20.81 7.47492 24.5778 10.7019 27.195V39.9766C4.30076 36.2573 0 29.3521 0 21.4466C0 9.60215 9.65375 0 21.5625 0C24.4536 0 27.2107 0.567347 29.7305 1.59403V30.8204C29.7305 33.9882 27.755 36.3001 23.8516 36.6173L23.8513 25.3632H19.1484L19.1487 40.5485Z" fill="#8B7842"/>
<path d="M49.088 28C48.78 28 48.5047 27.8833 48.262 27.65C48.0287 27.4073 47.912 27.132 47.912 26.824V10.192C47.912 9.884 48.0287 9.61333 48.262 9.38C48.5047 9.13733 48.78 9.016 49.088 9.016C49.396 9.016 49.6667 9.13733 49.9 9.38C50.1427 9.61333 50.264 9.884 50.264 10.192V17.22H61.688V10.192C61.688 9.884 61.8047 9.61333 62.038 9.38C62.2713 9.13733 62.5467 9.016 62.864 9.016C63.172 9.016 63.4427 9.13733 63.676 9.38C63.9187 9.61333 64.04 9.884 64.04 10.192V26.824C64.04 27.132 63.9187 27.4073 63.676 27.65C63.4427 27.8833 63.172 28 62.864 28C62.5467 28 62.2713 27.8833 62.038 27.65C61.8047 27.4073 61.688 27.132 61.688 26.824V19.572H50.264V26.824C50.264 27.132 50.1427 27.4073 49.9 27.65C49.6667 27.8833 49.396 28 49.088 28ZM68.973 27.888C68.2264 27.5987 68.0024 27.0853 68.301 26.348L74.965 9.94C75.245 9.324 75.6837 9.016 76.281 9.016H76.337C76.9437 9.044 77.3544 9.352 77.569 9.94L84.345 26.348C84.6437 27.0853 84.429 27.5987 83.701 27.888C82.9637 28.1773 82.4504 27.9627 82.161 27.244L80.649 23.576H71.927L70.485 27.244C70.1957 27.972 69.6917 28.1867 68.973 27.888ZM72.851 21.224H79.683L76.197 12.74L72.851 21.224ZM88.5175 28C87.7521 28 87.3695 27.608 87.3695 26.824C87.3695 26.6933 87.4068 26.5487 87.4815 26.39C87.5561 26.2313 87.6681 26.04 87.8175 25.816L99.0735 11.088V11.368H91.5975C91.0001 11.368 90.5335 11.4567 90.1975 11.634C89.8615 11.8113 89.6281 12.1053 89.4975 12.516C89.4135 12.8613 89.2828 13.132 89.1055 13.328C88.9281 13.5147 88.6481 13.608 88.2655 13.608C87.8735 13.608 87.5655 13.5007 87.3415 13.286C87.1268 13.0713 87.0521 12.768 87.1175 12.376C87.3415 11.2933 87.8268 10.4627 88.5735 9.884C89.3295 9.30533 90.3375 9.016 91.5975 9.016H100.949C101.733 9.016 102.125 9.408 102.125 10.192C102.125 10.3413 102.093 10.5 102.027 10.668C101.962 10.836 101.845 11.032 101.677 11.256L90.5615 25.76V25.648H98.8495C99.4841 25.648 99.9695 25.564 100.305 25.396C100.641 25.2187 100.865 24.92 100.977 24.5C101.08 24.1453 101.22 23.8747 101.397 23.688C101.584 23.5013 101.864 23.408 102.237 23.408C102.629 23.408 102.933 23.5153 103.147 23.73C103.362 23.9447 103.441 24.248 103.385 24.64C102.928 26.88 101.416 28 98.8495 28H88.5175ZM108.998 28C108.597 28 108.298 27.9067 108.102 27.72C107.915 27.524 107.822 27.2253 107.822 26.824V10.22C107.822 9.80933 107.915 9.51067 108.102 9.324C108.298 9.13733 108.597 9.044 108.998 9.044C109.409 9.044 109.707 9.13733 109.894 9.324C110.081 9.51067 110.174 9.80933 110.174 10.22V26.824C110.174 27.2253 110.081 27.524 109.894 27.72C109.707 27.9067 109.409 28 108.998 28ZM128.206 28.056C127.898 28.252 127.604 28.3127 127.324 28.238C127.044 28.1633 126.806 27.972 126.61 27.664L122.27 20.44H118.35V26.824C118.35 27.608 117.958 28 117.174 28C116.39 28 115.998 27.608 115.998 26.824V10.192C115.998 9.408 116.39 9.016 117.174 9.016H123.726C125.434 9.016 126.741 9.47333 127.646 10.388C128.561 11.2933 129.018 12.6 129.018 14.308V15.148C129.018 16.632 128.673 17.8173 127.982 18.704C127.291 19.5813 126.293 20.1273 124.986 20.342L128.654 26.46C129.009 27.1133 128.859 27.6453 128.206 28.056ZM118.35 18.088H123.726C124.79 18.088 125.546 17.864 125.994 17.416C126.442 16.968 126.666 16.212 126.666 15.148V14.308C126.666 13.2533 126.442 12.502 125.994 12.054C125.546 11.5967 124.79 11.368 123.726 11.368H118.35V18.088ZM134.674 28C134.273 28 133.974 27.9067 133.778 27.72C133.591 27.524 133.498 27.2253 133.498 26.824V10.22C133.498 9.80933 133.591 9.51067 133.778 9.324C133.974 9.13733 134.273 9.044 134.674 9.044C135.085 9.044 135.383 9.13733 135.57 9.324C135.757 9.51067 135.85 9.80933 135.85 10.22V26.824C135.85 27.2253 135.757 27.524 135.57 27.72C135.383 27.9067 135.085 28 134.674 28ZM141.674 28C140.908 28 140.526 27.608 140.526 26.824C140.526 26.6933 140.563 26.5487 140.638 26.39C140.712 26.2313 140.824 26.04 140.974 25.816L152.23 11.088V11.368H144.754C144.156 11.368 143.69 11.4567 143.354 11.634C143.018 11.8113 142.784 12.1053 142.654 12.516C142.57 12.8613 142.439 13.132 142.262 13.328C142.084 13.5147 141.804 13.608 141.422 13.608C141.03 13.608 140.722 13.5007 140.498 13.286C140.283 13.0713 140.208 12.768 140.274 12.376C140.498 11.2933 140.983 10.4627 141.73 9.884C142.486 9.30533 143.494 9.016 144.754 9.016H154.106C154.89 9.016 155.282 9.408 155.282 10.192C155.282 10.3413 155.249 10.5 155.184 10.668C155.118 10.836 155.002 11.032 154.834 11.256L143.718 25.76V25.648H152.006C152.64 25.648 153.126 25.564 153.462 25.396C153.798 25.2187 154.022 24.92 154.134 24.5C154.236 24.1453 154.376 23.8747 154.554 23.688C154.74 23.5013 155.02 23.408 155.394 23.408C155.786 23.408 156.089 23.5153 156.304 23.73C156.518 23.9447 156.598 24.248 156.542 24.64C156.084 26.88 154.572 28 152.006 28H141.674Z" fill="#EBEFFF"/>
<path d="M48.925 43C48.5797 43 48.407 42.8273 48.407 42.482V34.18C48.407 33.8347 48.5797 33.662 48.925 33.662H52.579C53.3023 33.662 53.8553 33.851 54.238 34.229C54.6207 34.607 54.812 35.1507 54.812 35.86V36.238C54.812 36.9007 54.602 37.3977 54.182 37.729C54.9473 38.121 55.33 38.87 55.33 39.976V40.438C55.33 41.278 55.1107 41.915 54.672 42.349C54.2333 42.783 53.5963 43 52.761 43H48.925ZM49.436 41.971H52.761C53.307 41.971 53.699 41.852 53.937 41.614C54.1797 41.3713 54.301 40.9793 54.301 40.438V39.976C54.301 39.4347 54.1843 39.0473 53.951 38.814C53.7177 38.576 53.321 38.457 52.761 38.457H49.436V41.971ZM49.436 37.428H52.782C53.1507 37.428 53.4097 37.323 53.559 37.113C53.7083 36.8983 53.783 36.6067 53.783 36.238V35.86C53.783 35.4353 53.692 35.1343 53.51 34.957C53.328 34.7797 53.0177 34.691 52.579 34.691H49.436V37.428ZM57.0488 42.951C56.7222 42.8203 56.6242 42.594 56.7548 42.272L60.1358 34.068C60.2525 33.7973 60.4438 33.662 60.7098 33.662H60.7448C61.0108 33.676 61.1928 33.8113 61.2908 34.068L64.7068 42.272C64.8375 42.594 64.7442 42.8203 64.4268 42.951C64.1048 43.077 63.8808 42.9837 63.7548 42.671L62.9358 40.711H58.5048L57.7138 42.671C57.5832 42.9883 57.3615 43.0817 57.0488 42.951ZM58.9108 39.682H62.5158L60.6888 35.293L58.9108 39.682ZM67.1906 43C66.8453 43 66.6726 42.8273 66.6726 42.482V34.18C66.6726 33.8347 66.8453 33.662 67.1906 33.662C67.368 33.662 67.5406 33.7647 67.7086 33.97L73.4346 41.341H73.1826V34.18C73.1826 33.8347 73.3553 33.662 73.7006 33.662C74.0413 33.662 74.2116 33.8347 74.2116 34.18V42.482C74.2116 42.8273 74.0413 43 73.7006 43C73.514 43 73.3413 42.8973 73.1826 42.692L67.4496 35.321H67.7016V42.482C67.7016 42.8273 67.5313 43 67.1906 43ZM77.5402 43C77.1949 43 77.0222 42.8273 77.0222 42.482V34.18C77.0222 33.8347 77.1949 33.662 77.5402 33.662C77.8809 33.662 78.0512 33.8347 78.0512 34.18V37.736L81.8172 33.858C82.0552 33.606 82.2956 33.6013 82.5382 33.844C82.7902 34.082 82.7949 34.3247 82.5522 34.572L79.5212 37.694L83.0912 42.125C83.3012 42.3957 83.2779 42.636 83.0212 42.846C82.7552 43.0653 82.5149 43.042 82.3002 42.776L78.8002 38.443L78.0512 39.213V42.482C78.0512 42.8273 77.8809 43 77.5402 43Z" fill="#EBEFFF"/>
</svg>
