<svg width="164" height="45" viewBox="0 0 164 45" fill="none" xmlns="http://www.w3.org/2000/svg">
<path fill-rule="evenodd" clip-rule="evenodd" d="M38.8779 12.7301L16.6851 18.6999C15.892 18.8792 15.1345 19.3594 14.5778 20.087C14.0206 20.8138 13.753 21.6722 13.753 22.5232V27.9447L7.86018 29.5056C7.5183 29.5971 7.20444 29.7979 6.97185 30.1015C6.73926 30.4023 6.62997 30.7582 6.62997 31.1113V36.8794L12.5227 35.2914C12.6106 35.268 12.6965 35.2372 12.7796 35.1998C13.0202 35.0905 13.2378 34.9215 13.4106 34.6982C13.6432 34.3984 13.7525 34.0416 13.7525 33.6885L13.753 27.9447L20.8862 26.0316V34.5217L15.0145 36.0854C14.6656 36.1806 14.3452 36.3852 14.1088 36.6925C13.8725 36.9998 13.76 37.3632 13.76 37.7275V43.7497L19.6317 42.172C19.7144 42.1486 19.7957 42.1206 19.8746 42.0851C19.9171 42.0664 19.9591 42.0459 20.0002 42.0234C20.2039 41.9142 20.3874 41.761 20.5373 41.5648C20.7737 41.2575 20.8862 40.8932 20.8862 40.5336V34.5217L27.9985 32.6049V41.0389L38.9027 38.1086C40.7387 37.6173 42.2402 35.6762 42.2402 33.837V15.1372C42.2435 13.2989 40.7424 12.1967 38.8779 12.7301ZM5.72436 43.0435L2.2 44V40.5018C2.2 40.3458 2.23036 40.1851 2.29154 40.0347C2.33264 39.9329 2.38775 39.8358 2.45734 39.7461C2.63015 39.5163 2.86601 39.365 3.11962 39.2977L6.64398 38.3375V41.8357C6.64398 42.101 6.55945 42.3691 6.38711 42.5951C6.2143 42.8212 5.97797 42.9725 5.72436 43.0435Z" fill="#006A40"/>
<path fill-rule="evenodd" clip-rule="evenodd" d="M16.6426 4.29296L32.3014 0.102589C33.8553 -0.320559 35.1275 0.604201 35.1312 2.16041V17.9831C35.1312 19.5365 33.859 21.16 32.3047 21.5804L28.005 22.734V15.6498L20.8857 17.5628V10.4001L13.7702 12.3029V8.14426C13.7702 7.28956 14.0379 6.43205 14.595 5.70532C15.1308 5.00288 15.8566 4.53303 16.6426 4.30044V4.29296ZM7.73314 19.9597L12.5087 18.6604C12.8539 18.5651 13.171 18.3643 13.4073 18.0569C13.5106 17.9224 13.5895 17.7786 13.6455 17.6291C13.7179 17.4358 13.7525 17.234 13.7525 17.0332V12.3029L8.97737 13.591C8.83632 13.6302 8.69994 13.6863 8.57197 13.761C8.38655 13.8694 8.21841 14.0151 8.07876 14.1982C7.8457 14.5055 7.73314 14.866 7.73314 15.2257V19.9597ZM2.20374 27.0411L5.7281 26.0846C5.98171 26.0136 6.21803 25.8623 6.39084 25.6362C6.48892 25.5083 6.55851 25.3663 6.60008 25.2187C6.63184 25.1066 6.64772 24.9917 6.64772 24.8768V21.3786L3.12336 22.3389C2.86975 22.4061 2.63389 22.5574 2.46108 22.7872C2.28827 23.0095 2.20374 23.2776 2.20374 23.5429V27.0411Z" fill="#50AC25"/>
<path d="M54.088 27C53.78 27 53.5047 26.8833 53.262 26.65C53.0287 26.4073 52.912 26.132 52.912 25.824V9.192C52.912 8.884 53.0287 8.61333 53.262 8.38C53.5047 8.13733 53.78 8.016 54.088 8.016C54.396 8.016 54.6667 8.13733 54.9 8.38C55.1427 8.61333 55.264 8.884 55.264 9.192V16.22H66.688V9.192C66.688 8.884 66.8047 8.61333 67.038 8.38C67.2713 8.13733 67.5467 8.016 67.864 8.016C68.172 8.016 68.4427 8.13733 68.676 8.38C68.9187 8.61333 69.04 8.884 69.04 9.192V25.824C69.04 26.132 68.9187 26.4073 68.676 26.65C68.4427 26.8833 68.172 27 67.864 27C67.5467 27 67.2713 26.8833 67.038 26.65C66.8047 26.4073 66.688 26.132 66.688 25.824V18.572H55.264V25.824C55.264 26.132 55.1427 26.4073 54.9 26.65C54.6667 26.8833 54.396 27 54.088 27ZM73.973 26.888C73.2264 26.5987 73.0024 26.0853 73.301 25.348L79.965 8.94C80.245 8.324 80.6837 8.016 81.281 8.016H81.337C81.9437 8.044 82.3544 8.352 82.569 8.94L89.345 25.348C89.6437 26.0853 89.429 26.5987 88.701 26.888C87.9637 27.1773 87.4504 26.9627 87.161 26.244L85.649 22.576H76.927L75.485 26.244C75.1957 26.972 74.6917 27.1867 73.973 26.888ZM77.851 20.224H84.683L81.197 11.74L77.851 20.224ZM93.5175 27C92.7521 27 92.3695 26.608 92.3695 25.824C92.3695 25.6933 92.4068 25.5487 92.4815 25.39C92.5561 25.2313 92.6681 25.04 92.8175 24.816L104.073 10.088V10.368H96.5975C96.0001 10.368 95.5335 10.4567 95.1975 10.634C94.8615 10.8113 94.6281 11.1053 94.4975 11.516C94.4135 11.8613 94.2828 12.132 94.1055 12.328C93.9281 12.5147 93.6481 12.608 93.2655 12.608C92.8735 12.608 92.5655 12.5007 92.3415 12.286C92.1268 12.0713 92.0521 11.768 92.1175 11.376C92.3415 10.2933 92.8268 9.46267 93.5735 8.884C94.3295 8.30533 95.3375 8.016 96.5975 8.016H105.949C106.733 8.016 107.125 8.408 107.125 9.192C107.125 9.34133 107.093 9.5 107.027 9.668C106.962 9.836 106.845 10.032 106.677 10.256L95.5615 24.76V24.648H103.849C104.484 24.648 104.969 24.564 105.305 24.396C105.641 24.2187 105.865 23.92 105.977 23.5C106.08 23.1453 106.22 22.8747 106.397 22.688C106.584 22.5013 106.864 22.408 107.237 22.408C107.629 22.408 107.933 22.5153 108.147 22.73C108.362 22.9447 108.441 23.248 108.385 23.64C107.928 25.88 106.416 27 103.849 27H93.5175ZM113.998 27C113.597 27 113.298 26.9067 113.102 26.72C112.915 26.524 112.822 26.2253 112.822 25.824V9.22C112.822 8.80933 112.915 8.51067 113.102 8.324C113.298 8.13733 113.597 8.044 113.998 8.044C114.409 8.044 114.707 8.13733 114.894 8.324C115.081 8.51067 115.174 8.80933 115.174 9.22V25.824C115.174 26.2253 115.081 26.524 114.894 26.72C114.707 26.9067 114.409 27 113.998 27ZM133.206 27.056C132.898 27.252 132.604 27.3127 132.324 27.238C132.044 27.1633 131.806 26.972 131.61 26.664L127.27 19.44H123.35V25.824C123.35 26.608 122.958 27 122.174 27C121.39 27 120.998 26.608 120.998 25.824V9.192C120.998 8.408 121.39 8.016 122.174 8.016H128.726C130.434 8.016 131.741 8.47333 132.646 9.388C133.561 10.2933 134.018 11.6 134.018 13.308V14.148C134.018 15.632 133.673 16.8173 132.982 17.704C132.291 18.5813 131.293 19.1273 129.986 19.342L133.654 25.46C134.009 26.1133 133.859 26.6453 133.206 27.056ZM123.35 17.088H128.726C129.79 17.088 130.546 16.864 130.994 16.416C131.442 15.968 131.666 15.212 131.666 14.148V13.308C131.666 12.2533 131.442 11.502 130.994 11.054C130.546 10.5967 129.79 10.368 128.726 10.368H123.35V17.088ZM139.674 27C139.273 27 138.974 26.9067 138.778 26.72C138.591 26.524 138.498 26.2253 138.498 25.824V9.22C138.498 8.80933 138.591 8.51067 138.778 8.324C138.974 8.13733 139.273 8.044 139.674 8.044C140.085 8.044 140.383 8.13733 140.57 8.324C140.757 8.51067 140.85 8.80933 140.85 9.22V25.824C140.85 26.2253 140.757 26.524 140.57 26.72C140.383 26.9067 140.085 27 139.674 27ZM146.674 27C145.908 27 145.526 26.608 145.526 25.824C145.526 25.6933 145.563 25.5487 145.638 25.39C145.712 25.2313 145.824 25.04 145.974 24.816L157.23 10.088V10.368H149.754C149.156 10.368 148.69 10.4567 148.354 10.634C148.018 10.8113 147.784 11.1053 147.654 11.516C147.57 11.8613 147.439 12.132 147.262 12.328C147.084 12.5147 146.804 12.608 146.422 12.608C146.03 12.608 145.722 12.5007 145.498 12.286C145.283 12.0713 145.208 11.768 145.274 11.376C145.498 10.2933 145.983 9.46267 146.73 8.884C147.486 8.30533 148.494 8.016 149.754 8.016H159.106C159.89 8.016 160.282 8.408 160.282 9.192C160.282 9.34133 160.249 9.5 160.184 9.668C160.118 9.836 160.002 10.032 159.834 10.256L148.718 24.76V24.648H157.006C157.64 24.648 158.126 24.564 158.462 24.396C158.798 24.2187 159.022 23.92 159.134 23.5C159.236 23.1453 159.376 22.8747 159.554 22.688C159.74 22.5013 160.02 22.408 160.394 22.408C160.786 22.408 161.089 22.5153 161.304 22.73C161.518 22.9447 161.598 23.248 161.542 23.64C161.084 25.88 159.572 27 157.006 27H146.674Z" fill="#003F7C"/>
<path d="M53.925 42C53.5797 42 53.407 41.8273 53.407 41.482V33.18C53.407 32.8347 53.5797 32.662 53.925 32.662H57.579C58.3023 32.662 58.8553 32.851 59.238 33.229C59.6207 33.607 59.812 34.1507 59.812 34.86V35.238C59.812 35.9007 59.602 36.3977 59.182 36.729C59.9473 37.121 60.33 37.87 60.33 38.976V39.438C60.33 40.278 60.1107 40.915 59.672 41.349C59.2333 41.783 58.5963 42 57.761 42H53.925ZM54.436 40.971H57.761C58.307 40.971 58.699 40.852 58.937 40.614C59.1797 40.3713 59.301 39.9793 59.301 39.438V38.976C59.301 38.4347 59.1843 38.0473 58.951 37.814C58.7177 37.576 58.321 37.457 57.761 37.457H54.436V40.971ZM54.436 36.428H57.782C58.1507 36.428 58.4097 36.323 58.559 36.113C58.7083 35.8983 58.783 35.6067 58.783 35.238V34.86C58.783 34.4353 58.692 34.1343 58.51 33.957C58.328 33.7797 58.0177 33.691 57.579 33.691H54.436V36.428ZM62.0488 41.951C61.7222 41.8203 61.6242 41.594 61.7548 41.272L65.1358 33.068C65.2525 32.7973 65.4438 32.662 65.7098 32.662H65.7448C66.0108 32.676 66.1928 32.8113 66.2908 33.068L69.7068 41.272C69.8375 41.594 69.7442 41.8203 69.4268 41.951C69.1048 42.077 68.8808 41.9837 68.7548 41.671L67.9358 39.711H63.5048L62.7138 41.671C62.5832 41.9883 62.3615 42.0817 62.0488 41.951ZM63.9108 38.682H67.5158L65.6888 34.293L63.9108 38.682ZM72.1906 42C71.8453 42 71.6726 41.8273 71.6726 41.482V33.18C71.6726 32.8347 71.8453 32.662 72.1906 32.662C72.368 32.662 72.5406 32.7647 72.7086 32.97L78.4346 40.341H78.1826V33.18C78.1826 32.8347 78.3553 32.662 78.7006 32.662C79.0413 32.662 79.2116 32.8347 79.2116 33.18V41.482C79.2116 41.8273 79.0413 42 78.7006 42C78.514 42 78.3413 41.8973 78.1826 41.692L72.4496 34.321H72.7016V41.482C72.7016 41.8273 72.5313 42 72.1906 42ZM82.5402 42C82.1949 42 82.0222 41.8273 82.0222 41.482V33.18C82.0222 32.8347 82.1949 32.662 82.5402 32.662C82.8809 32.662 83.0512 32.8347 83.0512 33.18V36.736L86.8172 32.858C87.0552 32.606 87.2956 32.6013 87.5382 32.844C87.7902 33.082 87.7949 33.3247 87.5522 33.572L84.5212 36.694L88.0912 41.125C88.3012 41.3957 88.2779 41.636 88.0212 41.846C87.7552 42.0653 87.5149 42.042 87.3002 41.776L83.8002 37.443L83.0512 38.213V41.482C83.0512 41.8273 82.8809 42 82.5402 42Z" fill="#003F7C"/>
</svg>
