<svg width="1280" height="720" viewBox="0 0 1280 720" fill="none" xmlns="http://www.w3.org/2000/svg">
<g clip-path="url(#clip0_103_4)">
<rect width="1280" height="720" fill="#EBEFFF"/>
<rect x="-102.083" y="509.767" width="635" height="379.459" rx="105.53" transform="rotate(-104.773 -102.083 509.767)" fill="#8B7842"/>
<rect x="-102.083" y="509.767" width="635" height="379.459" rx="105.53" transform="rotate(-104.773 -102.083 509.767)" fill="#8B7842"/>
<rect x="776" y="1006.39" width="635" height="367.622" rx="111" transform="rotate(-53.7961 776 1006.39)" fill="#8B7842"/>
<rect x="-53.4974" y="566.516" width="635" height="377" rx="105.53" transform="rotate(-116.517 -53.4974 566.516)" fill="#1C1C1C"/>
<rect x="866" y="1071.08" width="635" height="377" rx="122" transform="rotate(-65.3377 866 1071.08)" fill="#1C1C1C"/>
<rect x="773.59" y="134.856" width="592.988" height="139.902" rx="69.951" transform="rotate(-41.1048 773.59 134.856)" fill="#8B7842"/>
<rect x="776" y="133.052" width="553.742" height="131.209" rx="65.6045" transform="rotate(-41.1048 776 133.052)" fill="#1C1C1C"/>
</g>
<defs>
<clipPath id="clip0_103_4">
<rect width="1280" height="720" fill="white"/>
</clipPath>
</defs>
</svg>
